<?xml version="1.0" encoding="UTF-8" standalone="no"?>
<!DOCTYPE svg PUBLIC "-//W3C//DTD SVG 20010904//EN"
              "http://www.w3.org/TR/2001/REC-SVG-20010904/DTD/svg10.dtd">

<svg xmlns="http://www.w3.org/2000/svg"
     width="4.44444in" height="1.38889in"
     viewBox="0 0 320 100">
  <path
        fill="white" stroke="none" stroke-width="0"
        d="M 29.48,65.77
           C 29.48,66.84 29.34,67.77 29.06,68.56
             28.78,69.36 28.38,70.04 27.86,70.61
             27.34,71.18 26.71,71.68 25.98,72.09
             25.25,72.50 24.45,72.84 23.56,73.12
             23.56,73.12 23.56,73.36 23.56,73.36
             24.64,73.63 25.63,74.01 26.53,74.50
             27.43,74.98 28.20,75.57 28.84,76.27
             29.50,76.96 30.00,77.77 30.36,78.69
             30.72,79.61 30.91,80.64 30.91,81.80
             30.91,84.88 29.78,87.19 27.53,88.72
             25.28,90.24 21.92,91.00 17.45,91.00
             17.45,91.00 2.31,91.00 2.31,91.00
             2.31,91.00 2.31,88.50 2.31,88.50
             2.31,88.50 4.23,88.50 4.23,88.50
             4.59,88.50 4.91,88.47 5.20,88.41
             5.50,88.34 5.76,88.19 5.97,87.97
             6.19,87.75 6.36,87.44 6.48,87.03
             6.62,86.62 6.69,86.09 6.69,85.41
             6.69,85.41 6.69,62.52 6.69,62.52
             6.69,61.88 6.62,61.37 6.48,60.97
             6.36,60.57 6.19,60.27 5.97,60.05
             5.75,59.83 5.49,59.68 5.19,59.59
             4.88,59.51 4.57,59.47 4.23,59.47
             4.23,59.47 2.31,59.47 2.31,59.47
             2.31,59.47 2.31,57.00 2.31,57.00
             2.31,57.00 16.03,57.00 16.03,57.00
             20.50,57.00 23.86,57.71 26.11,59.12
             28.36,60.54 29.48,62.76 29.48,65.77 Z
           M 14.11,88.12
           C 14.11,88.12 17.23,88.12 17.23,88.12
             18.27,88.12 19.14,88.01 19.88,87.78
             20.61,87.55 21.21,87.18 21.67,86.67
             22.13,86.15 22.46,85.48 22.67,84.66
             22.88,83.84 22.98,82.82 22.98,81.62
             22.98,80.48 22.89,79.48 22.70,78.64
             22.52,77.79 22.21,77.09 21.77,76.53
             21.33,75.98 20.75,75.57 20.03,75.30
             19.31,75.02 18.41,74.88 17.31,74.88
             17.31,74.88 14.11,74.88 14.11,74.88
             14.11,74.88 14.11,88.12 14.11,88.12 Z
           M 14.11,72.00
           C 14.11,72.00 15.89,72.00 15.89,72.00
             16.99,72.00 17.91,71.88 18.62,71.64
             19.35,71.39 19.94,71.01 20.38,70.50
             20.81,69.98 21.12,69.31 21.30,68.48
             21.48,67.66 21.58,66.68 21.58,65.53
             21.58,64.39 21.47,63.43 21.27,62.67
             21.05,61.90 20.72,61.28 20.27,60.80
             19.80,60.32 19.21,59.98 18.48,59.78
             17.75,59.57 16.86,59.47 15.81,59.47
             15.81,59.47 14.11,59.47 14.11,59.47
             14.11,59.47 14.11,72.00 14.11,72.00 Z
           M 46.95,69.05
           C 45.64,69.05 44.59,69.64 43.81,70.81
             43.04,71.99 42.62,73.72 42.55,76.00
             42.55,76.00 50.67,76.00 50.67,76.00
             50.67,74.92 50.60,73.95 50.47,73.09
             50.33,72.23 50.11,71.50 49.81,70.91
             49.51,70.30 49.12,69.84 48.66,69.53
             48.20,69.21 47.63,69.05 46.95,69.05 Z
           M 47.39,91.00
           C 45.40,91.00 43.64,90.73 42.12,90.17
             40.60,89.62 39.33,88.82 38.30,87.77
             37.27,86.71 36.50,85.43 35.98,83.91
             35.46,82.39 35.20,80.65 35.20,78.70
             35.20,76.60 35.46,74.76 35.98,73.17
             36.50,71.58 37.26,70.25 38.25,69.19
             39.25,68.12 40.47,67.33 41.92,66.80
             43.37,66.27 45.02,66.00 46.86,66.00
             48.55,66.00 50.09,66.23 51.45,66.69
             52.82,67.15 53.97,67.82 54.92,68.72
             55.87,69.62 56.59,70.73 57.09,72.06
             57.60,73.40 57.86,74.95 57.86,76.72
             57.86,76.72 57.86,79.00 57.86,79.00
             57.86,79.00 42.45,79.00 42.45,79.00
             42.49,80.49 42.66,81.77 42.97,82.83
             43.27,83.89 43.68,84.77 44.20,85.47
             44.73,86.16 45.38,86.67 46.14,87.00
             46.90,87.34 47.77,87.50 48.75,87.50
             49.55,87.50 50.30,87.41 50.98,87.22
             51.68,87.02 52.30,86.75 52.86,86.41
             53.42,86.06 53.91,85.66 54.33,85.19
             54.75,84.72 55.10,84.22 55.38,83.69
             56.22,84.15 56.64,84.91 56.64,85.98
             56.64,86.65 56.45,87.29 56.08,87.89
             55.71,88.50 55.15,89.03 54.39,89.48
             53.63,89.95 52.67,90.31 51.52,90.59
             50.36,90.87 48.98,91.00 47.39,91.00 Z
           M 73.95,69.05
           C 72.64,69.05 71.59,69.64 70.81,70.81
             70.04,71.99 69.62,73.72 69.55,76.00
             69.55,76.00 77.67,76.00 77.67,76.00
             77.67,74.92 77.60,73.95 77.47,73.09
             77.33,72.23 77.11,71.50 76.81,70.91
             76.51,70.30 76.12,69.84 75.66,69.53
             75.20,69.21 74.63,69.05 73.95,69.05 Z
           M 74.39,91.00
           C 72.40,91.00 70.64,90.73 69.12,90.17
             67.60,89.62 66.33,88.82 65.30,87.77
             64.27,86.71 63.50,85.43 62.98,83.91
             62.46,82.39 62.20,80.65 62.20,78.70
             62.20,76.60 62.46,74.76 62.98,73.17
             63.50,71.58 64.26,70.25 65.25,69.19
             66.25,68.12 67.47,67.33 68.92,66.80
             70.37,66.27 72.02,66.00 73.86,66.00
             75.55,66.00 77.09,66.23 78.45,66.69
             79.82,67.15 80.97,67.82 81.92,68.72
             82.87,69.62 83.59,70.73 84.09,72.06
             84.60,73.40 84.86,74.95 84.86,76.72
             84.86,76.72 84.86,79.00 84.86,79.00
             84.86,79.00 69.45,79.00 69.45,79.00
             69.49,80.49 69.66,81.77 69.97,82.83
             70.27,83.89 70.68,84.77 71.20,85.47
             71.73,86.16 72.38,86.67 73.14,87.00
             73.90,87.34 74.77,87.50 75.75,87.50
             76.55,87.50 77.30,87.41 77.98,87.22
             78.68,87.02 79.30,86.75 79.86,86.41
             80.42,86.06 80.91,85.66 81.33,85.19
             81.75,84.72 82.10,84.22 82.38,83.69
             83.22,84.15 83.64,84.91 83.64,85.98
             83.64,86.65 83.45,87.29 83.08,87.89
             82.71,88.50 82.15,89.03 81.39,89.48
             80.63,89.95 79.67,90.31 78.52,90.59
             77.36,90.87 75.98,91.00 74.39,91.00 Z
           M 103.64,91.00
           C 103.64,91.00 87.94,91.00 87.94,91.00
             87.94,91.00 87.94,88.50 87.94,88.50
             87.94,88.50 88.08,88.50 88.08,88.50
             88.61,88.50 89.10,88.46 89.55,88.39
             89.99,88.31 90.38,88.15 90.69,87.92
             91.01,87.68 91.26,87.34 91.44,86.91
             91.61,86.47 91.70,85.89 91.70,85.16
             91.70,85.16 91.70,71.66 91.70,71.66
             91.70,70.98 91.62,70.43 91.45,70.02
             91.30,69.60 91.07,69.28 90.77,69.05
             90.47,68.82 90.12,68.67 89.70,68.61
             89.30,68.54 88.83,68.50 88.31,68.50
             88.31,68.50 88.17,68.50 88.17,68.50
             88.17,68.50 88.17,66.00 88.17,66.00
             88.17,66.00 97.67,66.00 97.67,66.00
             97.67,66.00 98.61,70.22 98.61,70.22
             98.61,70.22 98.84,70.22 98.84,70.22
             99.14,69.51 99.48,68.90 99.84,68.38
             100.22,67.84 100.66,67.41 101.17,67.06
             101.68,66.71 102.29,66.45 102.98,66.27
             103.68,66.09 104.52,66.00 105.48,66.00
             107.33,66.00 108.69,66.33 109.56,66.98
             110.44,67.63 110.88,68.57 110.88,69.81
             110.88,71.25 110.35,72.37 109.31,73.17
             108.27,73.96 106.80,74.36 104.91,74.36
             104.91,73.71 104.87,73.15 104.80,72.66
             104.73,72.17 104.61,71.76 104.44,71.44
             104.26,71.12 104.02,70.87 103.72,70.70
             103.43,70.54 103.05,70.45 102.61,70.45
             102.05,70.45 101.58,70.59 101.19,70.86
             100.79,71.12 100.45,71.46 100.17,71.88
             99.90,72.29 99.68,72.77 99.50,73.30
             99.32,73.83 99.18,74.37 99.08,74.91
             98.98,75.44 98.92,75.95 98.89,76.44
             98.86,76.92 98.84,77.34 98.84,77.69
             98.84,77.69 98.84,85.48 98.84,85.48
             98.84,86.14 98.93,86.67 99.09,87.08
             99.26,87.48 99.49,87.79 99.78,88.00
             100.07,88.20 100.42,88.34 100.83,88.41
             101.23,88.47 101.66,88.50 102.12,88.50
             102.12,88.50 103.64,88.50 103.64,88.50
             103.64,88.50 103.64,91.00 103.64,91.00 Z
           M 125.31,88.50
           C 125.31,88.50 127.28,88.50 127.28,88.50
             127.60,88.50 127.91,88.47 128.20,88.41
             128.49,88.34 128.75,88.22 128.97,88.03
             129.19,87.84 129.36,87.55 129.48,87.17
             129.62,86.79 129.69,86.28 129.69,85.66
             129.69,85.66 129.69,62.39 129.69,62.39
             129.69,61.75 129.62,61.23 129.48,60.86
             129.36,60.48 129.19,60.18 128.97,59.98
             128.75,59.78 128.49,59.64 128.20,59.58
             127.91,59.51 127.60,59.47 127.28,59.47
             127.28,59.47 125.31,59.47 125.31,59.47
             125.31,59.47 125.31,57.00 125.31,57.00
             125.31,57.00 140.45,57.00 140.45,57.00
             144.89,57.00 148.14,57.73 150.22,59.20
             152.29,60.66 153.33,62.79 153.33,65.58
             153.33,66.80 153.14,67.88 152.77,68.83
             152.40,69.78 151.91,70.61 151.31,71.31
             150.71,72.02 150.02,72.62 149.25,73.12
             148.49,73.62 147.71,74.02 146.92,74.33
             146.92,74.33 152.53,84.47 152.53,84.47
             152.93,85.18 153.31,85.79 153.69,86.30
             154.06,86.80 154.44,87.21 154.81,87.55
             155.19,87.88 155.57,88.12 155.97,88.28
             156.38,88.43 156.80,88.50 157.23,88.50
             157.23,88.50 157.42,88.50 157.42,88.50
             157.42,88.50 157.42,91.00 157.42,91.00
             157.42,91.00 155.88,91.00 155.88,91.00
             154.47,91.00 153.24,90.95 152.19,90.83
             151.14,90.71 150.23,90.50 149.44,90.17
             148.64,89.84 147.96,89.39 147.39,88.81
             146.82,88.23 146.29,87.48 145.80,86.58
             145.80,86.58 140.22,75.72 140.22,75.72
             140.22,75.72 137.11,75.72 137.11,75.72
             137.11,75.72 137.11,85.53 137.11,85.53
             137.11,86.18 137.17,86.70 137.30,87.11
             137.43,87.51 137.61,87.81 137.83,88.02
             138.05,88.21 138.30,88.34 138.59,88.41
             138.88,88.47 139.19,88.50 139.52,88.50
             139.52,88.50 141.53,88.50 141.53,88.50
             141.53,88.50 141.53,91.00 141.53,91.00
             141.53,91.00 125.31,91.00 125.31,91.00
             125.31,91.00 125.31,88.50 125.31,88.50 Z
           M 137.11,73.00
           C 137.11,73.00 139.75,73.00 139.75,73.00
             140.83,73.00 141.74,72.86 142.47,72.58
             143.20,72.29 143.77,71.86 144.20,71.30
             144.64,70.73 144.95,70.03 145.14,69.19
             145.34,68.34 145.44,67.34 145.44,66.22
             145.44,65.04 145.33,64.05 145.11,63.23
             144.90,62.42 144.57,61.76 144.11,61.25
             143.65,60.73 143.05,60.36 142.31,60.12
             141.58,59.89 140.70,59.77 139.66,59.77
             139.66,59.77 137.11,59.77 137.11,59.77
             137.11,59.77 137.11,73.00 137.11,73.00 Z
           M 170.95,69.05
           C 169.64,69.05 168.59,69.64 167.81,70.81
             167.04,71.99 166.62,73.72 166.55,76.00
             166.55,76.00 174.67,76.00 174.67,76.00
             174.67,74.92 174.60,73.95 174.47,73.09
             174.33,72.23 174.11,71.50 173.81,70.91
             173.51,70.30 173.12,69.84 172.66,69.53
             172.20,69.21 171.63,69.05 170.95,69.05 Z
           M 171.39,91.00
           C 169.40,91.00 167.64,90.73 166.12,90.17
             164.60,89.62 163.33,88.82 162.30,87.77
             161.27,86.71 160.50,85.43 159.98,83.91
             159.46,82.39 159.20,80.65 159.20,78.70
             159.20,76.60 159.46,74.76 159.98,73.17
             160.50,71.58 161.26,70.25 162.25,69.19
             163.25,68.12 164.47,67.33 165.92,66.80
             167.37,66.27 169.02,66.00 170.86,66.00
             172.55,66.00 174.09,66.23 175.45,66.69
             176.82,67.15 177.97,67.82 178.92,68.72
             179.87,69.62 180.59,70.73 181.09,72.06
             181.60,73.40 181.86,74.95 181.86,76.72
             181.86,76.72 181.86,79.00 181.86,79.00
             181.86,79.00 166.45,79.00 166.45,79.00
             166.49,80.49 166.66,81.77 166.97,82.83
             167.27,83.89 167.68,84.77 168.20,85.47
             168.73,86.16 169.38,86.67 170.14,87.00
             170.90,87.34 171.77,87.50 172.75,87.50
             173.55,87.50 174.30,87.41 174.98,87.22
             175.68,87.02 176.30,86.75 176.86,86.41
             177.42,86.06 177.91,85.66 178.33,85.19
             178.75,84.72 179.10,84.22 179.38,83.69
             180.22,84.15 180.64,84.91 180.64,85.98
             180.64,86.65 180.45,87.29 180.08,87.89
             179.71,88.50 179.15,89.03 178.39,89.48
             177.63,89.95 176.67,90.31 175.52,90.59
             174.36,90.87 172.98,91.00 171.39,91.00 Z
           M 212.48,68.50
           C 212.48,68.50 211.55,68.50 211.55,68.50
             211.22,68.50 210.93,68.54 210.67,68.62
             210.42,68.70 210.18,68.86 209.94,69.09
             209.71,69.32 209.47,69.66 209.23,70.11
             209.00,70.56 208.75,71.15 208.48,71.89
             208.48,71.89 201.67,91.00 201.67,91.00
             201.67,91.00 195.47,91.00 195.47,91.00
             195.47,91.00 187.77,70.73 187.77,70.73
             187.60,70.30 187.40,69.93 187.17,69.64
             186.95,69.35 186.69,69.12 186.39,68.95
             186.10,68.79 185.75,68.67 185.36,68.61
             184.97,68.54 184.52,68.50 184.00,68.50
             184.00,68.50 184.00,66.00 184.00,66.00
             184.00,66.00 198.58,66.00 198.58,66.00
             198.58,66.00 198.58,68.50 198.58,68.50
             198.58,68.50 196.59,68.50 196.59,68.50
             196.12,68.50 195.74,68.62 195.45,68.88
             195.17,69.12 195.03,69.50 195.03,69.98
             195.03,70.36 195.08,70.73 195.17,71.09
             195.27,71.46 195.38,71.77 195.47,72.03
             195.47,72.03 198.61,80.83 198.61,80.83
             198.99,81.82 199.33,82.81 199.61,83.81
             199.89,84.80 200.11,85.70 200.27,86.48
             200.34,86.12 200.44,85.70 200.58,85.22
             200.72,84.73 200.86,84.26 201.00,83.80
             201.13,83.34 201.26,82.92 201.38,82.55
             201.49,82.16 201.57,81.89 201.62,81.73
             201.62,81.73 204.81,72.41 204.81,72.41
             204.97,71.99 205.09,71.57 205.19,71.14
             205.29,70.70 205.34,70.27 205.34,69.84
             205.34,69.32 205.17,68.97 204.83,68.78
             204.48,68.59 204.04,68.50 203.50,68.50
             203.50,68.50 202.16,68.50 202.16,68.50
             202.16,68.50 202.16,66.00 202.16,66.00
             202.16,66.00 212.48,66.00 212.48,66.00
             212.48,66.00 212.48,68.50 212.48,68.50 Z
           M 216.05,58.48
           C 216.05,57.87 216.15,57.34 216.36,56.91
             216.57,56.46 216.85,56.10 217.20,55.83
             217.57,55.55 217.99,55.34 218.47,55.20
             218.95,55.07 219.47,55.00 220.05,55.00
             220.58,55.00 221.09,55.07 221.58,55.20
             222.07,55.34 222.49,55.55 222.86,55.83
             223.22,56.10 223.52,56.46 223.73,56.91
             223.96,57.34 224.08,57.87 224.08,58.48
             224.08,59.09 223.96,59.62 223.73,60.06
             223.52,60.50 223.22,60.87 222.86,61.16
             222.49,61.44 222.07,61.65 221.58,61.80
             221.09,61.93 220.58,62.00 220.05,62.00
             219.47,62.00 218.95,61.93 218.47,61.80
             217.99,61.65 217.57,61.44 217.20,61.16
             216.85,60.87 216.57,60.50 216.36,60.06
             216.15,59.62 216.05,59.09 216.05,58.48 Z
           M 213.36,88.50
           C 213.70,88.50 214.07,88.47 214.45,88.41
             214.85,88.34 215.21,88.20 215.55,87.98
             215.88,87.77 216.16,87.46 216.38,87.08
             216.59,86.68 216.70,86.15 216.70,85.48
             216.70,85.48 216.70,71.34 216.70,71.34
             216.70,70.72 216.59,70.23 216.38,69.86
             216.16,69.48 215.88,69.20 215.53,69.00
             215.20,68.79 214.83,68.66 214.44,68.59
             214.05,68.53 213.69,68.50 213.36,68.50
             213.36,68.50 212.80,68.50 212.80,68.50
             212.80,68.50 212.80,66.00 212.80,66.00
             212.80,66.00 223.84,66.00 223.84,66.00
             223.84,66.00 223.84,85.47 223.84,85.47
             223.84,86.14 223.95,86.67 224.17,87.06
             224.39,87.46 224.66,87.77 225.00,87.98
             225.33,88.20 225.70,88.34 226.09,88.41
             226.49,88.47 226.85,88.50 227.19,88.50
             227.19,88.50 227.75,88.50 227.75,88.50
             227.75,88.50 227.75,91.00 227.75,91.00
             227.75,91.00 212.80,91.00 212.80,91.00
             212.80,91.00 212.80,88.50 212.80,88.50
             212.80,88.50 213.36,88.50 213.36,88.50 Z
           M 242.95,69.05
           C 241.64,69.05 240.59,69.64 239.81,70.81
             239.04,71.99 238.62,73.72 238.55,76.00
             238.55,76.00 246.67,76.00 246.67,76.00
             246.67,74.92 246.60,73.95 246.47,73.09
             246.33,72.23 246.11,71.50 245.81,70.91
             245.51,70.30 245.12,69.84 244.66,69.53
             244.20,69.21 243.63,69.05 242.95,69.05 Z
           M 243.39,91.00
           C 241.40,91.00 239.64,90.73 238.12,90.17
             236.60,89.62 235.33,88.82 234.30,87.77
             233.27,86.71 232.50,85.43 231.98,83.91
             231.46,82.39 231.20,80.65 231.20,78.70
             231.20,76.60 231.46,74.76 231.98,73.17
             232.50,71.58 233.26,70.25 234.25,69.19
             235.25,68.12 236.47,67.33 237.92,66.80
             239.37,66.27 241.02,66.00 242.86,66.00
             244.55,66.00 246.09,66.23 247.45,66.69
             248.82,67.15 249.97,67.82 250.92,68.72
             251.87,69.62 252.59,70.73 253.09,72.06
             253.60,73.40 253.86,74.95 253.86,76.72
             253.86,76.72 253.86,79.00 253.86,79.00
             253.86,79.00 238.45,79.00 238.45,79.00
             238.49,80.49 238.66,81.77 238.97,82.83
             239.27,83.89 239.68,84.77 240.20,85.47
             240.73,86.16 241.38,86.67 242.14,87.00
             242.90,87.34 243.77,87.50 244.75,87.50
             245.55,87.50 246.30,87.41 246.98,87.22
             247.68,87.02 248.30,86.75 248.86,86.41
             249.42,86.06 249.91,85.66 250.33,85.19
             250.75,84.72 251.10,84.22 251.38,83.69
             252.22,84.15 252.64,84.91 252.64,85.98
             252.64,86.65 252.45,87.29 252.08,87.89
             251.71,88.50 251.15,89.03 250.39,89.48
             249.63,89.95 248.67,90.31 247.52,90.59
             246.36,90.87 244.98,91.00 243.39,91.00 Z
           M 279.22,66.25
           C 279.22,66.25 283.81,79.97 283.81,79.97
             284.19,81.09 284.46,82.03 284.62,82.81
             284.80,83.59 284.94,84.27 285.05,84.84
             285.05,84.84 285.19,84.84 285.19,84.84
             285.26,84.45 285.33,84.08 285.39,83.73
             285.46,83.39 285.55,83.03 285.66,82.66
             285.76,82.27 285.87,81.86 285.98,81.42
             286.11,80.98 286.27,80.46 286.45,79.89
             286.45,79.89 288.52,73.11 288.52,73.11
             288.64,72.73 288.74,72.31 288.83,71.86
             288.91,71.40 288.95,71.04 288.95,70.78
             288.95,69.99 288.70,69.41 288.19,69.05
             287.68,68.68 286.89,68.50 285.83,68.50
             285.83,68.50 285.52,68.50 285.52,68.50
             285.52,68.50 285.52,66.00 285.52,66.00
             285.52,66.00 296.28,66.00 296.28,66.00
             296.28,66.00 296.28,68.50 296.28,68.50
             296.28,68.50 295.69,68.50 295.69,68.50
             295.23,68.50 294.83,68.55 294.48,68.64
             294.15,68.73 293.85,68.90 293.59,69.17
             293.33,69.43 293.09,69.80 292.86,70.28
             292.63,70.76 292.39,71.38 292.14,72.14
             292.14,72.14 286.09,91.00 286.09,91.00
             286.09,91.00 281.02,91.00 281.02,91.00
             281.02,91.00 275.88,75.59 275.88,75.59
             275.88,75.59 270.48,91.00 270.48,91.00
             270.48,91.00 265.36,91.00 265.36,91.00
             265.36,91.00 259.33,70.95 259.33,70.95
             259.16,70.46 258.98,70.06 258.78,69.75
             258.58,69.43 258.35,69.18 258.09,69.00
             257.83,68.82 257.53,68.70 257.19,68.62
             256.85,68.54 256.46,68.50 256.00,68.50
             256.00,68.50 255.86,68.50 255.86,68.50
             255.86,68.50 255.86,66.00 255.86,66.00
             255.86,66.00 269.62,66.00 269.62,66.00
             269.62,66.00 269.62,68.50 269.62,68.50
             269.62,68.50 269.02,68.50 269.02,68.50
             268.07,68.50 267.36,68.64 266.89,68.91
             266.42,69.17 266.19,69.68 266.19,70.45
             266.19,70.71 266.23,71.03 266.31,71.39
             266.39,71.75 266.48,72.10 266.58,72.45
             266.58,72.45 268.31,78.47 268.31,78.47
             268.47,79.03 268.61,79.61 268.75,80.20
             268.89,80.79 269.02,81.36 269.14,81.92
             269.27,82.48 269.38,83.02 269.47,83.52
             269.57,84.01 269.66,84.45 269.72,84.84
             269.72,84.84 269.86,84.84 269.86,84.84
             269.99,84.07 270.18,83.28 270.42,82.45
             270.66,81.63 270.98,80.64 271.38,79.48
             271.38,79.48 276.17,66.25 276.17,66.25
             276.17,66.25 279.22,66.25 279.22,66.25 Z
           M 306.86,91.00
           C 305.16,91.00 303.71,90.87 302.50,90.59
             301.30,90.31 300.32,89.93 299.56,89.44
             298.81,88.95 298.27,88.37 297.92,87.70
             297.58,87.03 297.41,86.30 297.41,85.52
             297.41,84.76 297.55,84.14 297.84,83.67
             298.14,83.20 298.52,82.84 298.97,82.58
             299.43,82.32 299.91,82.15 300.41,82.06
             300.91,81.98 301.38,81.94 301.78,81.94
             301.78,82.92 301.90,83.80 302.14,84.58
             302.39,85.36 302.74,86.02 303.19,86.56
             303.63,87.11 304.16,87.52 304.78,87.81
             305.41,88.11 306.10,88.25 306.86,88.25
             307.67,88.25 308.37,88.18 308.95,88.03
             309.55,87.88 310.03,87.66 310.41,87.39
             310.78,87.12 311.05,86.81 311.23,86.45
             311.42,86.10 311.52,85.73 311.52,85.34
             311.52,84.86 311.41,84.42 311.22,84.03
             311.03,83.65 310.71,83.28 310.27,82.94
             309.83,82.59 309.23,82.26 308.48,81.94
             307.74,81.61 306.83,81.26 305.73,80.89
             304.46,80.48 303.34,80.03 302.36,79.56
             301.39,79.09 300.57,78.55 299.91,77.95
             299.24,77.35 298.73,76.66 298.39,75.88
             298.05,75.09 297.88,74.20 297.88,73.20
             297.88,72.00 298.11,70.95 298.59,70.05
             299.08,69.14 299.77,68.39 300.66,67.80
             301.54,67.20 302.60,66.75 303.84,66.45
             305.08,66.15 306.46,66.00 307.98,66.00
             309.46,66.00 310.72,66.12 311.77,66.38
             312.80,66.62 313.66,66.96 314.31,67.38
             314.97,67.79 315.45,68.26 315.75,68.78
             316.06,69.30 316.22,69.83 316.22,70.36
             316.22,71.41 315.85,72.21 315.11,72.77
             314.37,73.32 313.14,73.59 311.42,73.59
             311.42,72.03 311.07,70.82 310.38,69.95
             309.68,69.09 308.65,68.66 307.30,68.66
             306.79,68.66 306.30,68.71 305.83,68.83
             305.37,68.93 304.97,69.10 304.62,69.33
             304.28,69.55 304.00,69.82 303.80,70.14
             303.59,70.46 303.48,70.85 303.48,71.30
             303.48,71.78 303.58,72.20 303.77,72.58
             303.96,72.95 304.30,73.31 304.78,73.66
             305.26,74.00 305.91,74.35 306.73,74.70
             307.57,75.05 308.62,75.43 309.91,75.84
             310.95,76.20 311.91,76.60 312.78,77.05
             313.66,77.48 314.42,77.99 315.05,78.56
             315.68,79.14 316.18,79.79 316.53,80.52
             316.88,81.25 317.06,82.09 317.06,83.03
             317.06,84.28 316.83,85.40 316.38,86.39
             315.93,87.38 315.27,88.22 314.39,88.91
             313.52,89.59 312.46,90.11 311.19,90.47
             309.91,90.82 308.47,91.00 306.86,91.00 Z
           M 86.36,32.27
           C 85.98,33.09 85.57,34.08 85.12,35.23
             84.68,36.38 84.19,37.58 83.66,38.83
             83.13,40.08 82.57,41.32 81.97,42.55
             81.38,43.78 80.75,44.88 80.09,45.84
             79.45,46.81 78.77,47.60 78.08,48.20
             77.38,48.80 76.67,49.11 75.95,49.11
             75.35,49.11 74.85,49.02 74.45,48.83
             74.07,48.65 73.77,48.41 73.55,48.12
             73.34,47.84 73.19,47.54 73.09,47.20
             73.01,46.86 72.97,46.53 72.97,46.22
             72.97,45.75 73.04,45.27 73.19,44.78
             73.33,44.29 73.52,43.84 73.73,43.42
             73.73,43.42 84.95,22.78 84.95,22.78
             85.44,21.92 85.91,21.24 86.34,20.75
             86.78,20.26 87.19,19.90 87.56,19.67
             87.95,19.43 88.29,19.29 88.58,19.25
             88.87,19.20 89.11,19.17 89.31,19.17
             89.66,19.17 89.99,19.30 90.28,19.55
             90.57,19.79 90.72,20.23 90.72,20.88
             90.72,21.50 90.55,22.36 90.22,23.45
             89.88,24.55 89.27,25.95 88.38,27.67
             89.89,27.55 91.39,27.29 92.88,26.89
             94.36,26.50 95.70,25.95 96.88,25.25
             98.06,24.54 99.02,23.68 99.73,22.67
             100.46,21.66 100.83,20.50 100.83,19.17
             100.83,18.00 100.63,16.88 100.25,15.81
             99.88,14.75 99.32,13.81 98.58,13.00
             97.85,12.19 96.95,11.55 95.88,11.08
             94.80,10.60 93.56,10.36 92.16,10.36
             90.24,10.36 88.59,10.54 87.22,10.91
             85.84,11.26 84.66,11.73 83.67,12.31
             82.68,12.90 81.85,13.57 81.19,14.34
             80.53,15.11 79.96,15.88 79.48,16.66
             79.00,17.44 78.58,18.21 78.20,18.97
             77.84,19.73 77.45,20.40 77.05,20.98
             76.65,21.57 76.20,22.04 75.69,22.41
             75.18,22.77 74.55,22.95 73.81,22.95
             72.85,22.95 72.14,22.71 71.69,22.22
             71.23,21.73 71.00,21.04 71.00,20.14
             71.00,19.25 71.24,18.27 71.73,17.20
             72.22,16.13 72.91,15.06 73.81,13.98
             74.71,12.91 75.80,11.89 77.08,10.91
             78.36,9.92 79.80,9.04 81.41,8.28
             83.01,7.51 84.75,6.90 86.62,6.44
             88.51,5.98 90.50,5.75 92.59,5.75
             94.55,5.75 96.43,6.03 98.23,6.59
             100.04,7.15 101.63,7.98 103.02,9.09
             104.41,10.21 105.52,11.60 106.34,13.27
             107.18,14.93 107.59,16.89 107.59,19.14
             107.59,21.20 107.10,23.05 106.11,24.70
             105.13,26.35 103.80,27.75 102.12,28.89
             100.46,30.03 98.53,30.90 96.34,31.52
             94.16,32.13 91.85,32.44 89.44,32.44
             88.93,32.44 88.41,32.43 87.89,32.42
             87.37,32.40 86.86,32.35 86.36,32.27 Z
           M 113.66,32.00
           C 112.73,32.00 111.83,32.23 110.97,32.70
             110.11,33.17 109.35,33.79 108.69,34.55
             108.03,35.31 107.50,36.16 107.11,37.11
             106.72,38.06 106.53,39.01 106.53,39.97
             106.53,40.37 106.55,40.77 106.59,41.19
             106.64,41.61 106.76,41.99 106.94,42.34
             107.11,42.70 107.36,43.00 107.69,43.23
             108.01,43.46 108.44,43.58 108.98,43.58
             109.42,43.58 109.93,43.39 110.50,43.02
             111.07,42.63 111.66,42.14 112.28,41.55
             112.89,40.95 113.49,40.29 114.08,39.58
             114.67,38.86 115.20,38.16 115.67,37.48
             116.14,36.80 116.52,36.18 116.81,35.64
             117.10,35.09 117.25,34.69 117.25,34.44
             117.25,34.06 117.12,33.73 116.86,33.42
             116.61,33.12 116.30,32.87 115.92,32.66
             115.55,32.44 115.16,32.28 114.75,32.17
             114.33,32.06 113.97,32.00 113.66,32.00 Z
           M 133.95,39.56
           C 133.60,39.90 133.13,40.36 132.55,40.94
             131.96,41.52 131.29,42.16 130.53,42.84
             129.78,43.53 128.98,44.23 128.12,44.92
             127.28,45.61 126.41,46.23 125.53,46.80
             124.64,47.36 123.77,47.82 122.91,48.19
             122.05,48.55 121.24,48.73 120.47,48.73
             119.79,48.73 119.21,48.59 118.72,48.30
             118.23,48.00 117.82,47.62 117.50,47.16
             117.18,46.69 116.94,46.16 116.78,45.56
             116.62,44.96 116.55,44.34 116.55,43.72
             116.55,43.31 116.57,42.91 116.62,42.52
             116.69,42.11 116.79,41.73 116.94,41.38
             116.32,42.20 115.63,43.05 114.86,43.92
             114.09,44.79 113.26,45.58 112.38,46.30
             111.49,47.01 110.56,47.59 109.59,48.05
             108.62,48.50 107.64,48.73 106.64,48.73
             106.14,48.73 105.55,48.63 104.88,48.42
             104.20,48.22 103.55,47.89 102.95,47.42
             102.35,46.95 101.84,46.34 101.42,45.59
             101.02,44.86 100.81,43.95 100.81,42.88
             100.81,42.07 100.93,41.12 101.17,40.00
             101.42,38.89 101.80,37.73 102.30,36.53
             102.80,35.34 103.43,34.15 104.20,32.98
             104.97,31.81 105.88,30.76 106.94,29.83
             107.99,28.89 109.19,28.14 110.53,27.56
             111.88,26.99 113.39,26.70 115.06,26.70
             115.91,26.70 116.66,26.81 117.31,27.03
             117.96,27.24 118.50,27.47 118.95,27.72
             119.46,28.03 119.91,28.38 120.30,28.75
             120.63,28.57 120.97,28.41 121.33,28.25
             121.62,28.12 121.93,28.00 122.25,27.89
             122.57,27.78 122.85,27.72 123.08,27.72
             123.83,27.72 124.44,27.93 124.91,28.34
             125.38,28.75 125.61,29.20 125.61,29.69
             125.61,29.82 125.60,29.93 125.58,30.02
             125.47,30.38 125.32,30.85 125.11,31.42
             124.91,31.98 124.68,32.62 124.42,33.31
             124.17,34.00 123.91,34.73 123.66,35.48
             123.39,36.23 123.16,36.97 122.94,37.69
             122.72,38.41 122.54,39.09 122.41,39.72
             122.27,40.36 122.20,40.90 122.20,41.34
             122.20,41.94 122.30,42.43 122.50,42.81
             122.70,43.19 123.03,43.38 123.50,43.38
             123.79,43.38 124.13,43.28 124.53,43.09
             124.94,42.91 125.38,42.66 125.84,42.34
             126.31,42.03 126.79,41.68 127.28,41.28
             127.78,40.88 128.27,40.47 128.73,40.06
             129.83,39.09 130.99,37.97 132.22,36.72
             132.53,36.47 132.83,36.34 133.12,36.34
             133.52,36.34 133.85,36.54 134.11,36.92
             134.38,37.30 134.52,37.72 134.52,38.19
             134.52,38.73 134.33,39.19 133.95,39.56 Z
           M 139.48,31.50
           C 140.67,32.12 141.73,32.84 142.67,33.64
             143.61,34.45 144.41,35.29 145.06,36.19
             145.72,37.07 146.22,37.98 146.56,38.89
             146.91,39.81 147.08,40.70 147.08,41.58
             147.08,42.70 146.76,43.70 146.12,44.59
             145.49,45.48 144.66,46.23 143.62,46.84
             142.60,47.46 141.43,47.93 140.11,48.25
             138.80,48.57 137.46,48.73 136.11,48.73
             135.10,48.73 134.11,48.62 133.16,48.39
             132.20,48.17 131.32,47.83 130.53,47.36
             129.74,46.89 129.05,46.29 128.48,45.56
             127.92,44.82 127.53,43.95 127.30,42.94
             127.26,42.78 127.23,42.65 127.23,42.55
             127.23,42.03 127.42,41.57 127.80,41.19
             128.17,40.80 128.58,40.61 129.03,40.61
             129.24,40.61 129.47,40.65 129.73,40.73
             130.00,40.81 130.21,40.98 130.34,41.27
             130.59,41.73 130.95,42.16 131.41,42.53
             131.88,42.90 132.39,43.21 132.95,43.48
             133.52,43.75 134.11,43.95 134.75,44.09
             135.38,44.24 136.00,44.31 136.61,44.31
             137.23,44.31 137.83,44.26 138.41,44.14
             138.99,44.02 139.50,43.83 139.94,43.58
             140.38,43.32 140.72,43.00 140.97,42.61
             141.23,42.21 141.36,41.73 141.36,41.17
             141.36,40.17 141.13,39.26 140.69,38.42
             140.24,37.58 139.66,36.80 138.94,36.09
             138.23,35.38 137.42,34.71 136.52,34.09
             135.61,33.48 134.70,32.89 133.80,32.33
             133.70,32.27 133.55,32.09 133.36,31.81
             133.16,31.53 133.06,31.25 133.06,30.95
             133.06,30.71 133.12,30.53 133.25,30.39
             133.56,29.98 133.92,29.57 134.33,29.14
             134.73,28.70 135.17,28.31 135.64,27.95
             136.11,27.59 136.61,27.30 137.16,27.08
             137.71,26.85 138.28,26.73 138.88,26.73
             139.30,26.73 139.70,26.79 140.06,26.91
             140.44,27.02 140.75,27.17 141.00,27.36
             141.26,27.55 141.46,27.76 141.61,27.98
             141.75,28.20 141.83,28.41 141.83,28.61
             141.83,28.88 141.76,29.15 141.62,29.41
             141.49,29.66 141.30,29.90 141.08,30.14
             140.86,30.37 140.60,30.61 140.31,30.84
             140.03,31.07 139.75,31.29 139.48,31.50 Z
           M 157.48,31.50
           C 158.67,32.12 159.73,32.84 160.67,33.64
             161.61,34.45 162.41,35.29 163.06,36.19
             163.72,37.07 164.22,37.98 164.56,38.89
             164.91,39.81 165.08,40.70 165.08,41.58
             165.08,42.70 164.76,43.70 164.12,44.59
             163.49,45.48 162.66,46.23 161.62,46.84
             160.60,47.46 159.43,47.93 158.11,48.25
             156.80,48.57 155.46,48.73 154.11,48.73
             153.10,48.73 152.11,48.62 151.16,48.39
             150.20,48.17 149.32,47.83 148.53,47.36
             147.74,46.89 147.05,46.29 146.48,45.56
             145.92,44.82 145.53,43.95 145.30,42.94
             145.26,42.78 145.23,42.65 145.23,42.55
             145.23,42.03 145.42,41.57 145.80,41.19
             146.17,40.80 146.58,40.61 147.03,40.61
             147.24,40.61 147.47,40.65 147.73,40.73
             148.00,40.81 148.21,40.98 148.34,41.27
             148.59,41.73 148.95,42.16 149.41,42.53
             149.88,42.90 150.39,43.21 150.95,43.48
             151.52,43.75 152.11,43.95 152.75,44.09
             153.38,44.24 154.00,44.31 154.61,44.31
             155.23,44.31 155.83,44.26 156.41,44.14
             156.99,44.02 157.50,43.83 157.94,43.58
             158.38,43.32 158.72,43.00 158.97,42.61
             159.23,42.21 159.36,41.73 159.36,41.17
             159.36,40.17 159.13,39.26 158.69,38.42
             158.24,37.58 157.66,36.80 156.94,36.09
             156.23,35.38 155.42,34.71 154.52,34.09
             153.61,33.48 152.70,32.89 151.80,32.33
             151.70,32.27 151.55,32.09 151.36,31.81
             151.16,31.53 151.06,31.25 151.06,30.95
             151.06,30.71 151.12,30.53 151.25,30.39
             151.56,29.98 151.92,29.57 152.33,29.14
             152.73,28.70 153.17,28.31 153.64,27.95
             154.11,27.59 154.61,27.30 155.16,27.08
             155.71,26.85 156.28,26.73 156.88,26.73
             157.30,26.73 157.70,26.79 158.06,26.91
             158.44,27.02 158.75,27.17 159.00,27.36
             159.26,27.55 159.46,27.76 159.61,27.98
             159.75,28.20 159.83,28.41 159.83,28.61
             159.83,28.88 159.76,29.15 159.62,29.41
             159.49,29.66 159.30,29.90 159.08,30.14
             158.86,30.37 158.60,30.61 158.31,30.84
             158.03,31.07 157.75,31.29 157.48,31.50 Z
           M 178.66,32.00
           C 177.73,32.00 176.83,32.23 175.97,32.70
             175.11,33.17 174.35,33.79 173.69,34.55
             173.03,35.31 172.50,36.16 172.11,37.11
             171.72,38.06 171.53,39.01 171.53,39.97
             171.53,40.37 171.55,40.77 171.59,41.19
             171.64,41.61 171.76,41.99 171.94,42.34
             172.11,42.70 172.36,43.00 172.69,43.23
             173.01,43.46 173.44,43.58 173.98,43.58
             174.42,43.58 174.93,43.39 175.50,43.02
             176.07,42.63 176.66,42.14 177.28,41.55
             177.89,40.95 178.49,40.29 179.08,39.58
             179.67,38.86 180.20,38.16 180.67,37.48
             181.14,36.80 181.52,36.18 181.81,35.64
             182.10,35.09 182.25,34.69 182.25,34.44
             182.25,34.06 182.12,33.73 181.86,33.42
             181.61,33.12 181.30,32.87 180.92,32.66
             180.55,32.44 180.16,32.28 179.75,32.17
             179.33,32.06 178.97,32.00 178.66,32.00 Z
           M 198.95,39.56
           C 198.60,39.90 198.13,40.36 197.55,40.94
             196.96,41.52 196.29,42.16 195.53,42.84
             194.78,43.53 193.98,44.23 193.12,44.92
             192.28,45.61 191.41,46.23 190.53,46.80
             189.64,47.36 188.77,47.82 187.91,48.19
             187.05,48.55 186.24,48.73 185.47,48.73
             184.79,48.73 184.21,48.59 183.72,48.30
             183.23,48.00 182.82,47.62 182.50,47.16
             182.18,46.69 181.94,46.16 181.78,45.56
             181.62,44.96 181.55,44.34 181.55,43.72
             181.55,43.31 181.57,42.91 181.62,42.52
             181.69,42.11 181.79,41.73 181.94,41.38
             181.32,42.20 180.63,43.05 179.86,43.92
             179.09,44.79 178.26,45.58 177.38,46.30
             176.49,47.01 175.56,47.59 174.59,48.05
             173.62,48.50 172.64,48.73 171.64,48.73
             171.14,48.73 170.55,48.63 169.88,48.42
             169.20,48.22 168.55,47.89 167.95,47.42
             167.35,46.95 166.84,46.34 166.42,45.59
             166.02,44.86 165.81,43.95 165.81,42.88
             165.81,42.07 165.93,41.12 166.17,40.00
             166.42,38.89 166.80,37.73 167.30,36.53
             167.80,35.34 168.43,34.15 169.20,32.98
             169.97,31.81 170.88,30.76 171.94,29.83
             172.99,28.89 174.19,28.14 175.53,27.56
             176.88,26.99 178.39,26.70 180.06,26.70
             180.91,26.70 181.66,26.81 182.31,27.03
             182.96,27.24 183.50,27.47 183.95,27.72
             184.46,28.03 184.91,28.38 185.30,28.75
             185.63,28.57 185.97,28.41 186.33,28.25
             186.62,28.12 186.93,28.00 187.25,27.89
             187.57,27.78 187.85,27.72 188.08,27.72
             188.83,27.72 189.44,27.93 189.91,28.34
             190.38,28.75 190.61,29.20 190.61,29.69
             190.61,29.82 190.60,29.93 190.58,30.02
             190.47,30.38 190.32,30.85 190.11,31.42
             189.91,31.98 189.68,32.62 189.42,33.31
             189.17,34.00 188.91,34.73 188.66,35.48
             188.39,36.23 188.16,36.97 187.94,37.69
             187.72,38.41 187.54,39.09 187.41,39.72
             187.27,40.36 187.20,40.90 187.20,41.34
             187.20,41.94 187.30,42.43 187.50,42.81
             187.70,43.19 188.03,43.38 188.50,43.38
             188.79,43.38 189.13,43.28 189.53,43.09
             189.94,42.91 190.38,42.66 190.84,42.34
             191.31,42.03 191.79,41.68 192.28,41.28
             192.78,40.88 193.27,40.47 193.73,40.06
             194.83,39.09 195.99,37.97 197.22,36.72
             197.53,36.47 197.83,36.34 198.12,36.34
             198.52,36.34 198.85,36.54 199.11,36.92
             199.38,37.30 199.52,37.72 199.52,38.19
             199.52,38.73 199.33,39.19 198.95,39.56 Z
           M 210.78,31.56
           C 209.66,31.56 208.55,31.84 207.44,32.38
             206.33,32.91 205.33,33.62 204.44,34.50
             203.55,35.38 202.82,36.37 202.25,37.47
             201.69,38.57 201.41,39.70 201.41,40.83
             201.41,41.14 201.43,41.46 201.48,41.78
             201.55,42.09 201.67,42.39 201.86,42.67
             202.05,42.95 202.32,43.17 202.67,43.34
             203.02,43.52 203.49,43.61 204.08,43.61
             205.21,43.61 206.31,43.34 207.38,42.81
             208.44,42.27 209.38,41.56 210.22,40.69
             211.06,39.80 211.74,38.81 212.25,37.70
             212.76,36.60 213.02,35.49 213.02,34.38
             213.02,34.09 212.99,33.77 212.94,33.44
             212.88,33.11 212.78,32.80 212.62,32.53
             212.47,32.26 212.24,32.03 211.95,31.84
             211.66,31.66 211.27,31.56 210.78,31.56 Z
           M 213.25,43.38
           C 211.58,45.37 209.82,46.82 207.95,47.75
             206.09,48.68 204.07,49.14 201.91,49.14
             200.72,49.14 199.71,48.97 198.89,48.62
             198.07,48.29 197.40,47.84 196.89,47.25
             196.39,46.66 196.02,45.97 195.80,45.19
             195.58,44.41 195.47,43.58 195.47,42.70
             195.47,41.70 195.59,40.67 195.84,39.61
             196.09,38.55 196.43,37.52 196.84,36.52
             197.11,35.87 197.34,35.34 197.52,34.91
             197.69,34.48 197.84,34.12 197.95,33.81
             198.07,33.50 198.16,33.23 198.25,33.02
             198.34,32.79 198.44,32.55 198.53,32.31
             198.63,32.06 198.75,31.78 198.89,31.47
             199.02,31.15 199.21,30.73 199.45,30.22
             199.45,30.22 208.00,11.20 208.00,11.20
             208.11,10.95 208.28,10.71 208.50,10.48
             208.73,10.25 208.99,10.03 209.28,9.84
             209.58,9.66 209.90,9.51 210.23,9.41
             210.58,9.29 210.93,9.23 211.28,9.23
             212.18,9.23 212.80,9.41 213.17,9.77
             213.54,10.12 213.72,10.55 213.72,11.06
             213.72,11.45 213.62,11.87 213.42,12.33
             213.22,12.79 213.01,13.21 212.78,13.61
             211.33,16.38 209.96,19.20 208.67,22.06
             207.38,24.92 206.02,27.74 204.58,30.53
             205.20,30.05 205.86,29.59 206.56,29.12
             207.27,28.66 208.00,28.25 208.77,27.89
             209.52,27.53 210.31,27.23 211.12,27.02
             211.95,26.79 212.79,26.67 213.66,26.67
             214.26,26.67 214.88,26.79 215.50,27.03
             216.12,27.26 216.69,27.60 217.20,28.05
             217.72,28.50 218.14,29.05 218.47,29.70
             218.79,30.36 218.95,31.12 218.95,31.97
             218.95,32.17 218.89,32.56 218.78,33.16
             218.66,33.74 218.49,34.40 218.27,35.12
             218.05,35.86 217.77,36.61 217.45,37.38
             217.13,38.15 216.77,38.83 216.38,39.42
             216.51,39.63 216.69,39.76 216.91,39.81
             217.12,39.87 217.37,39.89 217.64,39.89
             218.54,39.89 219.43,39.78 220.31,39.55
             221.21,39.31 222.05,39.02 222.84,38.67
             223.63,38.33 224.36,37.98 225.02,37.61
             225.68,37.23 226.24,36.91 226.69,36.62
             226.93,36.38 227.18,36.25 227.45,36.25
             227.79,36.25 228.07,36.40 228.31,36.69
             228.56,36.98 228.69,37.36 228.69,37.83
             228.69,38.28 228.59,38.73 228.41,39.17
             228.22,39.61 227.88,40.09 227.39,40.61
             226.52,41.14 225.63,41.64 224.73,42.11
             223.85,42.58 222.95,42.98 222.03,43.33
             221.11,43.67 220.18,43.95 219.23,44.16
             218.29,44.36 217.32,44.45 216.34,44.45
             215.72,44.45 215.14,44.37 214.61,44.19
             214.09,44.01 213.63,43.74 213.25,43.38 Z
           M 228.00,39.53
           C 227.78,39.98 227.57,40.51 227.36,41.11
             227.16,41.70 227.06,42.23 227.06,42.70
             227.06,43.00 227.12,43.23 227.23,43.41
             227.35,43.57 227.57,43.66 227.91,43.66
             228.32,43.66 228.84,43.54 229.45,43.30
             230.07,43.06 230.73,42.74 231.44,42.34
             232.16,41.94 232.90,41.48 233.67,40.95
             234.44,40.43 235.21,39.90 235.97,39.34
             236.73,38.78 237.45,38.23 238.14,37.67
             238.84,37.12 239.46,36.61 240.02,36.14
             240.17,36.00 240.35,35.90 240.56,35.84
             240.78,35.78 240.97,35.75 241.12,35.75
             241.51,35.75 241.83,35.89 242.08,36.17
             242.34,36.45 242.47,36.80 242.47,37.25
             242.47,37.66 242.33,38.12 242.06,38.62
             241.79,39.14 241.31,39.64 240.62,40.12
             239.38,41.27 238.11,42.37 236.84,43.41
             235.57,44.44 234.30,45.35 233.05,46.14
             231.79,46.93 230.54,47.56 229.30,48.03
             228.05,48.50 226.85,48.73 225.69,48.73
             224.88,48.73 224.21,48.62 223.67,48.41
             223.14,48.20 222.71,47.91 222.39,47.53
             222.07,47.16 221.84,46.72 221.70,46.22
             221.57,45.71 221.50,45.17 221.50,44.59
             221.50,43.65 221.64,42.67 221.92,41.66
             222.20,40.65 222.54,39.73 222.94,38.89
             223.61,37.37 224.30,35.86 225.00,34.36
             225.71,32.85 226.35,31.47 226.94,30.22
             226.94,30.22 235.83,11.31 235.83,11.31
             236.17,10.55 236.64,10.02 237.23,9.70
             237.84,9.39 238.44,9.23 239.05,9.23
             239.65,9.23 240.20,9.40 240.70,9.73
             241.20,10.07 241.45,10.61 241.45,11.34
             241.45,11.70 241.37,12.07 241.20,12.47
             241.04,12.86 240.82,13.27 240.56,13.72
             240.07,14.64 239.49,15.76 238.81,17.09
             238.14,18.42 237.43,19.86 236.66,21.42
             235.88,22.98 235.09,24.62 234.28,26.31
             233.47,28.00 232.68,29.65 231.91,31.25
             231.13,32.84 230.41,34.36 229.73,35.80
             229.07,37.23 228.49,38.48 228.00,39.53 Z
           M 250.17,30.72
           C 250.08,30.70 249.99,30.69 249.91,30.69
             249.83,30.69 249.75,30.69 249.66,30.69
             248.91,30.69 248.21,30.84 247.56,31.12
             246.93,31.42 246.34,31.80 245.80,32.28
             245.25,32.76 244.77,33.30 244.36,33.91
             243.94,34.51 243.57,35.12 243.23,35.72
             242.90,36.31 242.62,36.89 242.39,37.44
             242.17,37.98 242.00,38.43 241.89,38.80
             242.57,38.45 243.27,38.04 244.00,37.59
             244.74,37.15 245.43,36.72 246.08,36.31
             246.72,35.90 247.29,35.53 247.77,35.20
             248.24,34.87 248.58,34.64 248.77,34.52
             249.65,33.98 250.25,33.46 250.58,32.98
             250.91,32.51 251.08,32.09 251.08,31.73
             251.08,31.45 250.98,31.21 250.80,31.03
             250.62,30.86 250.41,30.75 250.17,30.72 Z
           M 251.23,26.67
           C 252.85,26.67 254.05,27.06 254.86,27.84
             255.66,28.62 256.06,29.71 256.06,31.09
             256.06,31.92 255.85,32.78 255.42,33.67
             254.99,34.57 254.25,35.48 253.19,36.41
             252.13,37.34 250.72,38.28 248.95,39.25
             247.19,40.22 244.98,41.20 242.33,42.17
             242.42,42.73 242.72,43.18 243.23,43.50
             243.74,43.82 244.41,43.98 245.25,43.98
             246.16,43.98 247.12,43.86 248.14,43.59
             249.16,43.32 250.18,42.98 251.19,42.58
             252.20,42.17 253.18,41.73 254.12,41.25
             255.08,40.77 255.95,40.32 256.72,39.89
             257.49,39.45 258.13,39.08 258.66,38.77
             259.18,38.45 259.52,38.26 259.70,38.19
             259.88,38.07 260.04,38.01 260.19,37.98
             260.33,37.96 260.46,37.95 260.58,37.95
             260.80,37.95 261.00,38.01 261.16,38.11
             261.31,38.21 261.44,38.34 261.55,38.50
             261.66,38.65 261.74,38.80 261.78,38.97
             261.82,39.12 261.84,39.27 261.84,39.39
             261.84,39.57 261.82,39.78 261.78,40.02
             261.74,40.26 261.59,40.53 261.34,40.84
             261.24,40.95 260.91,41.21 260.34,41.64
             259.79,42.07 259.08,42.58 258.20,43.17
             257.33,43.76 256.30,44.38 255.14,45.03
             253.98,45.68 252.75,46.28 251.45,46.83
             250.15,47.37 248.80,47.82 247.39,48.19
             245.98,48.55 244.60,48.73 243.23,48.73
             242.05,48.73 241.02,48.51 240.11,48.06
             239.20,47.62 238.43,47.01 237.80,46.25
             237.16,45.48 236.68,44.60 236.34,43.61
             236.01,42.61 235.84,41.56 235.84,40.47
             235.84,39.62 236.01,38.70 236.34,37.70
             236.68,36.70 237.16,35.68 237.78,34.67
             238.41,33.65 239.17,32.66 240.08,31.70
             240.99,30.73 242.02,29.88 243.14,29.14
             244.27,28.39 245.52,27.79 246.88,27.34
             248.24,26.90 249.69,26.67 251.23,26.67 Z" />
</svg>
